# AST/ASF file generated using VICON BodyLanguage
# -----------------------------------------------
:version 1.10
:name VICON
:units
  mass 1.0
  length 0.45
  angle deg
:documentation
   .ast/.asf automatically generated from VICON data using
   VICON BodyBuilder and BodyLanguage model FoxedUp or BRILLIANT.MOD
:root
   order TX TY TZ RX RY RZ
   axis XYZ
   position 0 0 0  
   orientation 0 0 0 
:bonedata
  begin
     id 1 
     name lhipjoint
     direction 0.623415 -0.642378 0.445763 
     length 2.49859 
     axis 0 0 0  XYZ
  end
  begin
     id 2 
     name lfemur
     direction 0.34202 -0.939693 0  
     length 6.69689  
     axis 0 0 20  XYZ
    dof rx ry rz
    limits (-160.0 20.0)
           (-70.0 70.0)
           (-60.0 70.0)
  end
  begin
     id 3 
     name ltibia
     direction 0.34202 -0.939693 0   
     length 7.37574   
     axis 0 0 20   XYZ
    dof rx
    limits (-10.0 170.0)
  end
  begin
     id 4 
     name lfoot
     direction 0.084323 -0.231675 0.969132   
     length 2.09111   
     axis -90 7.62852e-016 20   XYZ
    dof rx rz
    limits (-45.0 90.0)
           (-70.0 20.0)
  end
  begin
     id 5 
     name ltoes
     direction 1.5357e-011 -4.21957e-011 1   
     length 1.04989   
     axis -90 7.62852e-016 20   XYZ
    dof rx
    limits (-90.0 20.0)
  end
  begin
     id 6 
     name rhipjoint
     direction -0.605402 -0.653903 0.45376   
     length 2.45455  
     axis 0 0 0  XYZ 
  end
  begin
     id 7 
     name rfemur
     direction -0.34202 -0.939693 0   
     length 6.64523   
     axis 0 0 -20   XYZ
    dof rx ry rz
    limits (-160.0 20.0)
           (-70.0 70.0)
           (-70.0 60.0)
  end
  begin
     id 8 
     name rtibia
     direction -0.34202 -0.939693 0   
     length 7.3339   
     axis 0 0 -20   XYZ
    dof rx
    limits (-10.0 170.0)
 end
 begin
     id 9 
     name rfoot
     direction -0.120854 -0.332043 0.93549   
     length 2.23135  
     axis -90 -7.62852e-016 -20   XYZ
    dof rx rz
    limits (-45.0 90.0)
           (-20.0 70.0)
  end
  begin
     id 10 
     name rtoes
     direction -1.53563e-011 -4.21914e-011 1   
     length 1.10614   
     axis -90 -7.62852e-016 -20   XYZ
    dof rx
    limits (-90.0 20.0)
  end
  begin
     id 11 
     name lowerback
     direction 0.0319682 0.998615 -0.0417941   
     length 2.02718   
     axis 0 0 0   XYZ
    dof rx ry rz
    limits (-20.0 45.0)
           (-30.0 30.0)
           (-30.0 30.0)
  end
  begin
     id 12 
     name upperback
     direction 7.63181e-005 0.995808 0.0914691   
     length 1.97539   
     axis 0 0 0   XYZ
    dof rx ry rz
    limits (-20.0 45.0)
           (-30.0 30.0)
           (-30.0 30.0)
  end
  begin
     id 13 
     name thorax
     direction -0.016423 0.993627 0.111514   
     length 2.00349   
     axis 0 0 0   XYZ
    dof rx ry rz
    limits (-20.0 45.0)
           (-30.0 30.0)
           (-30.0 30.0)
  end
  begin
     id 14 
     name lowerneck
     direction -0.174763 0.981668 -0.0760716   
     length 1.71436   
     axis 0 0 0   XYZ
    dof rx ry rz
    limits (-20.0 45.0)
           (-30.0 30.0)
           (-30.0 30.0)
  end
  begin
     id 15 
     name upperneck
     direction 0.345458 0.934587 -0.0848868   
     length 1.72805   
     axis 0 0 0   XYZ
    dof rx ry rz
    limits (-20.0 45.0)
           (-30.0 30.0)
           (-30.0 30.0)
  end
  begin
     id 16
     name head
     direction 0.13001 0.989848 -0.0574291  
     length 1.767  
     axis 0 0 0   XYZ
    dof rx ry rz
    limits (-20.0 45.0)
           (-30.0 30.0)
           (-30.0 30.0)
  end
  begin
     id 17 
     name lclavicle
     direction 0.952951 0.290122 0.0878234  
     length 3.54654  
     axis 0 0 0   XYZ
    dof ry rz
    limits (-20.0 10.0)
           (0.0 20.0)
  end
  begin
     id 18 
     name lhumerus
     direction 1 -4.48957e-011 -4.56525e-028   
     length 5.19807   
     axis 180 -30 -90   XYZ
    dof rx ry rz
    limits (-60.0 90.0)
           (-90.0 90.0)
           (-90.0 90.0)
  end
  begin
     id 19
     name lradius
     direction 1 -4.48979e-011 -2.0317e-027   
     length 3.0937   
     axis 180 -30 -90   XYZ
    dof rx
    limits (-10.0 170.0)
  end
  begin
     id 20
     name lwrist
     direction 1 -4.48953e-011 -3.05809e-027   
     length 1.54685   
     axis 8.48514e-016 90 90   XYZ
    dof ry
    limits (-180.0 0.0)
 end
  begin
     id 21 
     name lhand
     direction 1 -4.48952e-011 -6.11639e-027   
     length 0.672632   
     axis 3.9013e-015 90 90   XYZ
    dof rx rz
    limits (-90.0 90.0)
           (-45.0 45.0)
  end
  begin
     id 22 
     name lfingers
     direction 1 -4.48925e-011 -1.22426e-026   
     length 0.542293   
     axis 7.80276e-015 90 90   XYZ
    dof rx
    limits (0.0 90.0)
  end
  begin
     id 23
     name lthumb
     direction 0.707107 -6.3486e-011 0.707107   
     length 0.778628   
     axis -90 45 5.37419e-014   XYZ
    dof rx rz
    limits (-45.0 45.0)
           (-45.0 45.0)
  end
  begin
     id 24 
     name rclavicle
     direction -0.960732 0.273675 -0.0457849   
     length 3.52079  
     axis 0 0 0   XYZ 
    dof ry rz
    limits (-10.0 20.0)
           (-20.0 0.0)
  end
  begin
     id 25 
     name rhumerus
     direction -1 -4.48976e-011 -1.63613e-027  
     length 5.45222   
     axis 180 30 90   XYZ
    dof rx ry rz
    limits (-90.0 60.0)
           (-90.0 90.0)
           (-90.0 90.0)
  end
  begin
     id 26 
     name rradius
     direction -1 -4.48957e-011 -7.00033e-028   
     length 3.01284   
     axis 180 30 90   XYZ
    dof rx
    limits (-10.0 170.0)
  end
  begin
     id 27 
     name rwrist
     direction -1 -4.48983e-011 -3.05543e-027   
     length 1.50642   
     axis 8.48514e-016 -90 -90   XYZ
    dof ry
    limits (-180.0 0.0)
  end
  begin
     id 28
     name rhand
     direction -1 -4.48984e-011 -6.11072e-027   
     length 0.622296   
     axis 3.9013e-015 -90 -90   XYZ
    dof rx rz
    limits (-90.0 90.0)
           (-45.0 45.0)
  end
  begin
     id 29
     name rfingers
     direction -1 -4.48865e-011 -1.22637e-026   
     length 0.501711   
     axis 7.80276e-015 -90 -90   XYZ
    dof rx
    limits (0.0 90.0)
  end
  begin
     id 30
     name rthumb
     direction -0.707107 -6.34932e-011 0.707107   
     length 0.72036   
     axis -90 -45 -5.37419e-014   XYZ
    dof rx rz
    limits (-45.0 45.0)
           (-45.0 45.0)
  end
:hierarchy
  begin
    root lhipjoint rhipjoint lowerback
    lhipjoint lfemur
    lfemur ltibia
    ltibia lfoot
    lfoot ltoes
    rhipjoint rfemur
    rfemur rtibia
    rtibia rfoot
    rfoot rtoes
    lowerback upperback
    upperback thorax
    thorax lowerneck lclavicle rclavicle
    lowerneck upperneck
    upperneck head
    lclavicle lhumerus
    lhumerus lradius
    lradius lwrist
    lwrist lhand lthumb
    lhand lfingers
    rclavicle rhumerus
    rhumerus rradius
    rradius rwrist
    rwrist rhand rthumb
    rhand rfingers
  end

#!OML:ASF H:\Not Pregnant\Project 1\Capture day 1\Session 1\non-pregnant.ASF
:FULLY-SPECIFIED
:DEGREES
219
root -5.60877 16.3388 34.7934 167.257 -82.5306 -154.175
lowerback -10.74 1.90328 1.2134
upperback -5.51802 2.17344 0.233588
thorax 0.312408 0.966664 -0.206226
lowerneck 19.6406 -5.69548 -31.642
upperneck 2.35462 -17.7686 41.1904
head 4.61789 -11.7673 22.8008
rclavicle 1.04362e-014 3.18055e-015
rhumerus -34.4772 6.70668 -92.3081
rradius 25.1824
rwrist 25.3666
rhand -8.49701 4.00964
rfingers 7.12502
rthumb 17.4306 -25.2288
lclavicle 1.04362e-014 3.18055e-015
lhumerus -42.1446 -8.68983 92.8955
lradius 30.5366
lwrist 38.1924
lhand -9.50172 -14.6616
lfingers 7.12502
lthumb 16.4634 14.6598
rfemur -10.5174 -8.18005 22.8286
rtibia 7.82829
rfoot -13.6134 12.756
rtoes -15.8905
lfemur -15.5257 2.52689 -15.7401
ltibia 13.5578
lfoot -12.9796 -7.1838
ltoes -20.9247
220
root -5.61346 16.3392 34.7951 167.37 -82.527 -154.276
lowerback -10.7518 1.95298 1.28679
upperback -5.58279 2.23034 0.157548
thorax 0.257896 0.990725 -0.320433
lowerneck 19.3091 -5.62173 -31.5571
upperneck 2.1283 -17.4695 41.3467
head 4.49304 -11.5899 22.9046
rclavicle 8.41108e-015 9.74045e-015
rhumerus -34.5368 6.35352 -92.3384
rradius 25.3107
rwrist 25.1746
rhand -8.54882 3.97941
rfingers 7.12502
rthumb 17.3807 -25.2635
lclavicle 8.41108e-015 9.74045e-015
lhumerus -42.2521 -8.99512 93.1269
lradius 30.0397
lwrist 37.4514
lhand -10.5796 -14.4173
lfingers 7.12502
lthumb 15.4254 14.9871
rfemur -10.4927 -8.17895 22.7904
rtibia 7.78482
rfoot -13.592 12.776
rtoes -15.8159
lfemur -15.5056 2.49123 -15.756
ltibia 13.546
lfoot -12.9861 -7.13533
ltoes -20.9355
221
root -5.61816 16.3396 34.7967 167.452 -82.5217 -154.349
lowerback -10.769 1.99949 1.35305
upperback -5.64082 2.28358 0.091509
thorax 0.212852 1.01329 -0.420451
lowerneck 19.0325 -5.56893 -31.4662
upperneck 1.85578 -17.194 41.4673
head 4.3492 -11.4234 22.9719
rclavicle -8.56016e-015 -2.78299e-015
rhumerus -34.6047 6.13419 -92.4244
rradius 25.4695
rwrist 24.8574
rhand -8.63175 3.8615
rfingers 7.12502
rthumb 17.3009 -25.3884
lclavicle -8.56016e-015 -2.78299e-015
lhumerus -42.3482 -9.30764 93.3474
lradius 29.6241
lwrist 36.9166
lhand -11.4185 -14.117
lfingers 7.12502
lthumb 14.6173 15.3479
rfemur -10.4684 -8.18304 22.7586
rtibia 7.7447
rfoot -13.5721 12.8033
rtoes -15.727
lfemur -15.4787 2.44885 -15.7657
ltibia 13.5244
lfoot -12.9898 -7.07858
ltoes -20.9835
222
root -5.62272 16.3399 34.7978 167.522 -82.5131 -154.409
lowerback -10.791 2.03984 1.40431
upperback -5.69265 2.32988 0.0398494
thorax 0.175781 1.03296 -0.497717
lowerneck 18.8053 -5.52872 -31.4062
upperneck 1.54631 -16.9486 41.5792
head 4.20311 -11.2765 23.0382
rclavicle -1.37286e-014 -8.74653e-015
rhumerus -34.678 6.0694 -92.568
rradius 25.6519
rwrist 24.4434
rhand -8.74877 3.66504
rfingers 7.12502
rthumb 17.1883 -25.5947
lclavicle -1.37286e-014 -8.74653e-015
lhumerus -42.4355 -9.60771 93.5525
lradius 29.3006
lwrist 36.5824
lhand -12.0363 -13.7995
lfingers 7.12502
lthumb 14.0221 15.7075
rfemur -10.4467 -8.17724 22.7307
rtibia 7.70627
rfoot -13.5495 12.823
rtoes -15.6407
lfemur -15.45 2.40519 -15.7707
ltibia 13.4974
lfoot -12.9923 -7.01516
ltoes -21.066
223
root -5.62718 16.3402 34.7987 167.567 -82.5031 -154.445
lowerback -10.8167 2.07793 1.44652
upperback -5.73758 2.37405 -0.00341685
thorax 0.14729 1.05202 -0.561234
lowerneck 18.6221 -5.50457 -31.3658
upperneck 1.20632 -16.738 41.6866
head 4.05908 -11.1516 23.1029
rclavicle -1.30452e-014 -3.97569e-015
rhumerus -34.7555 6.16455 -92.7803
rradius 25.855
rwrist 23.934
rhand -8.90255 3.39845
rfingers 7.12502
rthumb 17.0402 -25.8742
lclavicle -1.30452e-014 -3.97569e-015
lhumerus -42.5202 -9.91378 93.7461
lradius 29.0732
lwrist 36.3797
lhand -12.4969 -13.4919
lfingers 7.12502
lthumb 13.5781 16.0453
rfemur -10.4177 -8.1708 22.7061
rtibia 7.65413
rfoot -13.5134 12.8507
rtoes -15.5069
lfemur -15.424 2.36739 -15.7716
ltibia 13.4746
lfoot -12.9983 -6.95547
ltoes -21.1583
224
root -5.63148 16.3403 34.7982 167.559 -82.4845 -154.431
lowerback -10.8447 2.10713 1.4656
upperback -5.77579 2.40841 -0.0236791
thorax 0.125012 1.06711 -0.588907
lowerneck 18.4751 -5.49229 -31.3618
upperneck 0.848447 -16.5604 41.7849
head 3.92262 -11.0472 23.1686
rclavicle -5.46658e-015 -7.95139e-016
rhumerus -34.8297 6.38485 -93.0245
rradius 26.0601
rwrist 23.4219
rhand -9.07395 3.1095
rfingers 7.12502
rthumb 16.8753 -26.1773
lclavicle -5.46658e-015 -7.95139e-016
lhumerus -42.5994 -10.1691 93.9138
lradius 28.9407
lwrist 36.29
lhand -12.7954 -13.2159
lfingers 7.12502
lthumb 13.2904 16.3404
rfemur -10.3767 -8.15587 22.6977
rtibia 7.5858
rfoot -13.4734 12.8759
rtoes -15.3935
lfemur -15.3984 2.34131 -15.7581
ltibia 13.4586
lfoot -13.0073 -6.90001
ltoes -21.2477
